<svg width="192" height="192" viewBox="0 0 192 192" fill="none" xmlns="http://www.w3.org/2000/svg">
  <!-- Background circle with brand red -->
  <circle cx="96" cy="96" r="96" fill="#E31B23"/>
  
  <!-- Thai-inspired geometric pattern -->
  <g transform="translate(96, 96)">
    <!-- Central diamond shape -->
    <path d="M0 -40 L30 -10 L0 20 L-30 -10 Z" fill="#FCFCFC" opacity="0.9"/>
    
    <!-- Surrounding elements inspired by Thai patterns -->
    <circle cx="0" cy="-20" r="6" fill="#D4AF37"/>
    <circle cx="20" cy="0" r="6" fill="#D4AF37"/>
    <circle cx="0" cy="20" r="6" fill="#D4AF37"/>
    <circle cx="-20" cy="0" r="6" fill="#D4AF37"/>
    
    <!-- SOP document symbolism -->
    <rect x="-15" y="-8" width="30" height="16" rx="2" fill="#FCFCFC" opacity="0.8"/>
    <line x1="-10" y1="-4" x2="10" y2="-4" stroke="#231F20" stroke-width="1"/>
    <line x1="-10" y1="0" x2="10" y2="0" stroke="#231F20" stroke-width="1"/>
    <line x1="-10" y1="4" x2="5" y2="4" stroke="#231F20" stroke-width="1"/>
  </g>
  
  <!-- Corner flourishes -->
  <path d="M20 20 Q30 20 30 30 Q30 20 40 20" stroke="#FCFCFC" stroke-width="2" fill="none" opacity="0.6"/>
  <path d="M172 20 Q162 20 162 30 Q162 20 152 20" stroke="#FCFCFC" stroke-width="2" fill="none" opacity="0.6"/>
  <path d="M20 172 Q30 172 30 162 Q30 172 40 172" stroke="#FCFCFC" stroke-width="2" fill="none" opacity="0.6"/>
  <path d="M172 172 Q162 172 162 162 Q162 172 152 172" stroke="#FCFCFC" stroke-width="2" fill="none" opacity="0.6"/>
</svg>